# xmcd
#
# Track frame offsets: 
#        150
#        12482
#        26085
#        38065
#
# Disc length: 835 seconds
#
# Revision: 0
# Processed by: cddbd v1.5PL3 Copyright (c) Steve Scherf et al.
# Submitted via: ExactAudioCopy v0.95a3
#
DISCID=29034104
DTITLE=Change Up - 6-4-3
DYEAR=1999
DGENRE=Punk Rock
TTITLE0=life
TTITLE1=window
TTITLE2=absolute power
TTITLE3=fat boy
EXTD=
EXTT0=
EXTT1=
EXTT2=
EXTT3=
PLAYORDER=
